<svg xmlns="http://www.w3.org/2000/svg" width="360" height="360" viewBox="0 0 360 360" fill="white">
<g transform="translate(130.0,130.0) rotate(20) scale(1.0)">
  <path d="M0 0C-16-2-17-16 0-25C17-16 16-2 0 0Z"/>
  <path d="M0 0C-16-2-17-16 0-25C17-16 16-2 0 0Z" transform="rotate(90)"/>
  <path d="M0 0C-16-2-17-16 0-25C17-16 16-2 0 0Z" transform="rotate(180)"/>
  <path d="M0 0C-16-2-17-16 0-25C17-16 16-2 0 0Z" transform="rotate(270)"/>
  <circle r="5"/>
</g>
<g transform="translate(255.0,135.0) rotate(55) scale(0.9)">
  <path d="M0 0C-16-2-17-16 0-25C17-16 16-2 0 0Z"/>
  <path d="M0 0C-16-2-17-16 0-25C17-16 16-2 0 0Z" transform="rotate(90)"/>
  <path d="M0 0C-16-2-17-16 0-25C17-16 16-2 0 0Z" transform="rotate(180)"/>
  <path d="M0 0C-16-2-17-16 0-25C17-16 16-2 0 0Z" transform="rotate(270)"/>
  <circle r="5"/>
</g>
<g transform="translate(188.0,252.0) rotate(38) scale(1.05)">
  <path d="M0 0C-16-2-17-16 0-25C17-16 16-2 0 0Z"/>
  <path d="M0 0C-16-2-17-16 0-25C17-16 16-2 0 0Z" transform="rotate(90)"/>
  <path d="M0 0C-16-2-17-16 0-25C17-16 16-2 0 0Z" transform="rotate(180)"/>
  <path d="M0 0C-16-2-17-16 0-25C17-16 16-2 0 0Z" transform="rotate(270)"/>
  <circle r="5"/>
</g>
<g transform="translate(4.0,190.0) rotate(70) scale(0.88)">
  <path d="M0 0C-16-2-17-16 0-25C17-16 16-2 0 0Z"/>
  <path d="M0 0C-16-2-17-16 0-25C17-16 16-2 0 0Z" transform="rotate(90)"/>
  <path d="M0 0C-16-2-17-16 0-25C17-16 16-2 0 0Z" transform="rotate(180)"/>
  <path d="M0 0C-16-2-17-16 0-25C17-16 16-2 0 0Z" transform="rotate(270)"/>
  <circle r="5"/>
</g>
<g transform="translate(364.0,190.0) rotate(70) scale(0.88)">
  <path d="M0 0C-16-2-17-16 0-25C17-16 16-2 0 0Z"/>
  <path d="M0 0C-16-2-17-16 0-25C17-16 16-2 0 0Z" transform="rotate(90)"/>
  <path d="M0 0C-16-2-17-16 0-25C17-16 16-2 0 0Z" transform="rotate(180)"/>
  <path d="M0 0C-16-2-17-16 0-25C17-16 16-2 0 0Z" transform="rotate(270)"/>
  <circle r="5"/>
</g>
<g transform="translate(356.0,100.0) rotate(30) scale(0.92)">
  <path d="M0 0C-16-2-17-16 0-25C17-16 16-2 0 0Z"/>
  <path d="M0 0C-16-2-17-16 0-25C17-16 16-2 0 0Z" transform="rotate(90)"/>
  <path d="M0 0C-16-2-17-16 0-25C17-16 16-2 0 0Z" transform="rotate(180)"/>
  <path d="M0 0C-16-2-17-16 0-25C17-16 16-2 0 0Z" transform="rotate(270)"/>
  <circle r="5"/>
</g>
<g transform="translate(-4.0,100.0) rotate(30) scale(0.92)">
  <path d="M0 0C-16-2-17-16 0-25C17-16 16-2 0 0Z"/>
  <path d="M0 0C-16-2-17-16 0-25C17-16 16-2 0 0Z" transform="rotate(90)"/>
  <path d="M0 0C-16-2-17-16 0-25C17-16 16-2 0 0Z" transform="rotate(180)"/>
  <path d="M0 0C-16-2-17-16 0-25C17-16 16-2 0 0Z" transform="rotate(270)"/>
  <circle r="5"/>
</g>
<g transform="translate(105.0,4.0) rotate(15) scale(0.85)">
  <path d="M0 0C-16-2-17-16 0-25C17-16 16-2 0 0Z"/>
  <path d="M0 0C-16-2-17-16 0-25C17-16 16-2 0 0Z" transform="rotate(90)"/>
  <path d="M0 0C-16-2-17-16 0-25C17-16 16-2 0 0Z" transform="rotate(180)"/>
  <path d="M0 0C-16-2-17-16 0-25C17-16 16-2 0 0Z" transform="rotate(270)"/>
  <circle r="5"/>
</g>
<g transform="translate(105.0,364.0) rotate(15) scale(0.85)">
  <path d="M0 0C-16-2-17-16 0-25C17-16 16-2 0 0Z"/>
  <path d="M0 0C-16-2-17-16 0-25C17-16 16-2 0 0Z" transform="rotate(90)"/>
  <path d="M0 0C-16-2-17-16 0-25C17-16 16-2 0 0Z" transform="rotate(180)"/>
  <path d="M0 0C-16-2-17-16 0-25C17-16 16-2 0 0Z" transform="rotate(270)"/>
  <circle r="5"/>
</g>
<g transform="translate(252.0,356.0) rotate(62) scale(0.9)">
  <path d="M0 0C-16-2-17-16 0-25C17-16 16-2 0 0Z"/>
  <path d="M0 0C-16-2-17-16 0-25C17-16 16-2 0 0Z" transform="rotate(90)"/>
  <path d="M0 0C-16-2-17-16 0-25C17-16 16-2 0 0Z" transform="rotate(180)"/>
  <path d="M0 0C-16-2-17-16 0-25C17-16 16-2 0 0Z" transform="rotate(270)"/>
  <circle r="5"/>
</g>
<g transform="translate(252.0,-4.0) rotate(62) scale(0.9)">
  <path d="M0 0C-16-2-17-16 0-25C17-16 16-2 0 0Z"/>
  <path d="M0 0C-16-2-17-16 0-25C17-16 16-2 0 0Z" transform="rotate(90)"/>
  <path d="M0 0C-16-2-17-16 0-25C17-16 16-2 0 0Z" transform="rotate(180)"/>
  <path d="M0 0C-16-2-17-16 0-25C17-16 16-2 0 0Z" transform="rotate(270)"/>
  <circle r="5"/>
</g>
</svg>