<svg xmlns="http://www.w3.org/2000/svg" width="300" height="300" viewBox="0 0 300 300" fill="white">
<g transform="translate(78,95) rotate(15) scale(1.0)">
<path d="M0 0C-16-2-17-16 0-25C17-16 16-2 0 0Z"/>
<path d="M0 0C-16-2-17-16 0-25C17-16 16-2 0 0Z" transform="rotate(90)"/>
<path d="M0 0C-16-2-17-16 0-25C17-16 16-2 0 0Z" transform="rotate(180)"/>
<path d="M0 0C-16-2-17-16 0-25C17-16 16-2 0 0Z" transform="rotate(270)"/>
<circle r="5"/>
</g>
<g transform="translate(215,72) rotate(52) scale(0.88)">
<path d="M0 0C-16-2-17-16 0-25C17-16 16-2 0 0Z"/>
<path d="M0 0C-16-2-17-16 0-25C17-16 16-2 0 0Z" transform="rotate(90)"/>
<path d="M0 0C-16-2-17-16 0-25C17-16 16-2 0 0Z" transform="rotate(180)"/>
<path d="M0 0C-16-2-17-16 0-25C17-16 16-2 0 0Z" transform="rotate(270)"/>
<circle r="5"/>
</g>
<g transform="translate(148,162) rotate(33) scale(1.1)">
<path d="M0 0C-16-2-17-16 0-25C17-16 16-2 0 0Z"/>
<path d="M0 0C-16-2-17-16 0-25C17-16 16-2 0 0Z" transform="rotate(90)"/>
<path d="M0 0C-16-2-17-16 0-25C17-16 16-2 0 0Z" transform="rotate(180)"/>
<path d="M0 0C-16-2-17-16 0-25C17-16 16-2 0 0Z" transform="rotate(270)"/>
<circle r="5"/>
</g>
<g transform="translate(62,232) rotate(71) scale(0.85)">
<path d="M0 0C-16-2-17-16 0-25C17-16 16-2 0 0Z"/>
<path d="M0 0C-16-2-17-16 0-25C17-16 16-2 0 0Z" transform="rotate(90)"/>
<path d="M0 0C-16-2-17-16 0-25C17-16 16-2 0 0Z" transform="rotate(180)"/>
<path d="M0 0C-16-2-17-16 0-25C17-16 16-2 0 0Z" transform="rotate(270)"/>
<circle r="5"/>
</g>
<g transform="translate(248,198) rotate(26) scale(0.92)">
<path d="M0 0C-16-2-17-16 0-25C17-16 16-2 0 0Z"/>
<path d="M0 0C-16-2-17-16 0-25C17-16 16-2 0 0Z" transform="rotate(90)"/>
<path d="M0 0C-16-2-17-16 0-25C17-16 16-2 0 0Z" transform="rotate(180)"/>
<path d="M0 0C-16-2-17-16 0-25C17-16 16-2 0 0Z" transform="rotate(270)"/>
<circle r="5"/>
</g>
<g transform="translate(172,255) rotate(61) scale(0.82)">
<path d="M0 0C-16-2-17-16 0-25C17-16 16-2 0 0Z"/>
<path d="M0 0C-16-2-17-16 0-25C17-16 16-2 0 0Z" transform="rotate(90)"/>
<path d="M0 0C-16-2-17-16 0-25C17-16 16-2 0 0Z" transform="rotate(180)"/>
<path d="M0 0C-16-2-17-16 0-25C17-16 16-2 0 0Z" transform="rotate(270)"/>
<circle r="5"/>
</g>
<g transform="translate(115,42) rotate(83) scale(0.78)">
<path d="M0 0C-16-2-17-16 0-25C17-16 16-2 0 0Z"/>
<path d="M0 0C-16-2-17-16 0-25C17-16 16-2 0 0Z" transform="rotate(90)"/>
<path d="M0 0C-16-2-17-16 0-25C17-16 16-2 0 0Z" transform="rotate(180)"/>
<path d="M0 0C-16-2-17-16 0-25C17-16 16-2 0 0Z" transform="rotate(270)"/>
<circle r="5"/>
</g>
</svg>